<svg xmlns="http://www.w3.org/2000/svg" width="660" height="430" viewBox="0 0 660 430" role="img" aria-label="Two stacked panels sharing a logarithmic linger axis: consumer latency p50 and p99 above, write syscalls per second below."><title>What waiting to coalesce buys, and what it costs</title><desc>Two stacked panels sharing a logarithmic linger axis: consumer latency p50 and p99 above, write syscalls per second below.</desc><rect width="660" height="430" fill="#1a1a19"/><text x="20.0" y="28.0" fill="#ffffff" font-family="system-ui,-apple-system,'Segoe UI',Roboto,'Helvetica Neue',Arial,sans-serif" font-size="15" font-weight="600" text-anchor="start">What waiting to coalesce buys, and what it costs</text><text x="20.0" y="46.0" fill="#898781" font-family="system-ui,-apple-system,'Segoe UI',Roboto,'Helvetica Neue',Arial,sans-serif" font-size="12" font-weight="400" text-anchor="start">20 000 frames/s. The linger axis is logarithmic; 0 is drawn at the left edge.</text><line x1="82.0" y1="202.9" x2="564.0" y2="202.9" stroke="#2c2c2a" stroke-width="1" stroke-linecap="round"/><text x="70.0" y="206.9" fill="#898781" font-family="system-ui,-apple-system,'Segoe UI',Roboto,'Helvetica Neue',Arial,sans-serif" font-size="11" font-weight="400" text-anchor="end">100 µs</text><line x1="82.0" y1="139.4" x2="564.0" y2="139.4" stroke="#2c2c2a" stroke-width="1" stroke-linecap="round"/><text x="70.0" y="143.4" fill="#898781" font-family="system-ui,-apple-system,'Segoe UI',Roboto,'Helvetica Neue',Arial,sans-serif" font-size="11" font-weight="400" text-anchor="end">1.0 ms</text><line x1="82.0" y1="76.0" x2="564.0" y2="76.0" stroke="#2c2c2a" stroke-width="1" stroke-linecap="round"/><text x="70.0" y="80.0" fill="#898781" font-family="system-ui,-apple-system,'Segoe UI',Roboto,'Helvetica Neue',Arial,sans-serif" font-size="11" font-weight="400" text-anchor="end">10 ms</text><path d="M82.0,211.7 L154.5,195.1 L250.5,180.0 L323.0,169.3 L395.5,153.8 L491.5,130.8 L564.0,112.3" fill="none" stroke="#3987e5" stroke-width="2" stroke-linejoin="round" stroke-linecap="round"/><circle cx="82.0" cy="211.7" r="6.0" fill="#1a1a19"/><circle cx="82.0" cy="211.7" r="4.0" fill="#3987e5"/><circle cx="154.5" cy="195.1" r="6.0" fill="#1a1a19"/><circle cx="154.5" cy="195.1" r="4.0" fill="#3987e5"/><circle cx="250.5" cy="180.0" r="6.0" fill="#1a1a19"/><circle cx="250.5" cy="180.0" r="4.0" fill="#3987e5"/><circle cx="323.0" cy="169.3" r="6.0" fill="#1a1a19"/><circle cx="323.0" cy="169.3" r="4.0" fill="#3987e5"/><circle cx="395.5" cy="153.8" r="6.0" fill="#1a1a19"/><circle cx="395.5" cy="153.8" r="4.0" fill="#3987e5"/><circle cx="491.5" cy="130.8" r="6.0" fill="#1a1a19"/><circle cx="491.5" cy="130.8" r="4.0" fill="#3987e5"/><circle cx="564.0" cy="112.3" r="6.0" fill="#1a1a19"/><circle cx="564.0" cy="112.3" r="4.0" fill="#3987e5"/><path d="M82.0,198.3 L154.5,179.5 L250.5,166.9 L323.0,153.2 L395.5,136.7 L491.5,112.6 L564.0,94.1" fill="none" stroke="#d95926" stroke-width="2" stroke-linejoin="round" stroke-linecap="round"/><circle cx="82.0" cy="198.3" r="6.0" fill="#1a1a19"/><circle cx="82.0" cy="198.3" r="4.0" fill="#d95926"/><circle cx="154.5" cy="179.5" r="6.0" fill="#1a1a19"/><circle cx="154.5" cy="179.5" r="4.0" fill="#d95926"/><circle cx="250.5" cy="166.9" r="6.0" fill="#1a1a19"/><circle cx="250.5" cy="166.9" r="4.0" fill="#d95926"/><circle cx="323.0" cy="153.2" r="6.0" fill="#1a1a19"/><circle cx="323.0" cy="153.2" r="4.0" fill="#d95926"/><circle cx="395.5" cy="136.7" r="6.0" fill="#1a1a19"/><circle cx="395.5" cy="136.7" r="4.0" fill="#d95926"/><circle cx="491.5" cy="112.6" r="6.0" fill="#1a1a19"/><circle cx="491.5" cy="112.6" r="4.0" fill="#d95926"/><circle cx="564.0" cy="94.1" r="6.0" fill="#1a1a19"/><circle cx="564.0" cy="94.1" r="4.0" fill="#d95926"/><circle cx="578.0" cy="112.3" r="4.5" fill="#3987e5"/><text x="588.0" y="116.3" fill="#c3c2b7" font-family="system-ui,-apple-system,'Segoe UI',Roboto,'Helvetica Neue',Arial,sans-serif" font-size="12" font-weight="400" text-anchor="start">p50</text><circle cx="578.0" cy="94.1" r="4.5" fill="#d95926"/><text x="588.0" y="98.1" fill="#c3c2b7" font-family="system-ui,-apple-system,'Segoe UI',Roboto,'Helvetica Neue',Arial,sans-serif" font-size="12" font-weight="400" text-anchor="start">p99</text><text x="82.0" y="62.0" fill="#c3c2b7" font-family="system-ui,-apple-system,'Segoe UI',Roboto,'Helvetica Neue',Arial,sans-serif" font-size="12" font-weight="600" text-anchor="start">consumer latency</text><line x1="82.0" y1="366.0" x2="564.0" y2="366.0" stroke="#2c2c2a" stroke-width="1" stroke-linecap="round"/><text x="70.0" y="370.0" fill="#898781" font-family="system-ui,-apple-system,'Segoe UI',Roboto,'Helvetica Neue',Arial,sans-serif" font-size="11" font-weight="400" text-anchor="end">100</text><line x1="82.0" y1="326.0" x2="564.0" y2="326.0" stroke="#2c2c2a" stroke-width="1" stroke-linecap="round"/><text x="70.0" y="330.0" fill="#898781" font-family="system-ui,-apple-system,'Segoe UI',Roboto,'Helvetica Neue',Arial,sans-serif" font-size="11" font-weight="400" text-anchor="end">1 000</text><line x1="82.0" y1="286.0" x2="564.0" y2="286.0" stroke="#2c2c2a" stroke-width="1" stroke-linecap="round"/><text x="70.0" y="290.0" fill="#898781" font-family="system-ui,-apple-system,'Segoe UI',Roboto,'Helvetica Neue',Arial,sans-serif" font-size="11" font-weight="400" text-anchor="end">10 000</text><line x1="82.0" y1="366.0" x2="564.0" y2="366.0" stroke="#383835" stroke-width="1" stroke-linecap="round"/><path d="M82.0,275.7 L154.5,293.6 L250.5,305.7 L323.0,316.3 L395.5,327.5 L491.5,342.9 L564.0,354.7" fill="none" stroke="#199e70" stroke-width="2" stroke-linejoin="round" stroke-linecap="round"/><circle cx="82.0" cy="275.7" r="6.0" fill="#1a1a19"/><circle cx="82.0" cy="275.7" r="4.0" fill="#199e70"/><circle cx="154.5" cy="293.6" r="6.0" fill="#1a1a19"/><circle cx="154.5" cy="293.6" r="4.0" fill="#199e70"/><circle cx="250.5" cy="305.7" r="6.0" fill="#1a1a19"/><circle cx="250.5" cy="305.7" r="4.0" fill="#199e70"/><circle cx="323.0" cy="316.3" r="6.0" fill="#1a1a19"/><circle cx="323.0" cy="316.3" r="4.0" fill="#199e70"/><circle cx="395.5" cy="327.5" r="6.0" fill="#1a1a19"/><circle cx="395.5" cy="327.5" r="4.0" fill="#199e70"/><circle cx="491.5" cy="342.9" r="6.0" fill="#1a1a19"/><circle cx="491.5" cy="342.9" r="4.0" fill="#199e70"/><circle cx="564.0" cy="354.7" r="6.0" fill="#1a1a19"/><circle cx="564.0" cy="354.7" r="4.0" fill="#199e70"/><text x="82.0" y="260.0" fill="#c3c2b7" font-family="system-ui,-apple-system,'Segoe UI',Roboto,'Helvetica Neue',Arial,sans-serif" font-size="12" font-weight="600" text-anchor="start">write syscalls per second</text><text x="82.0" y="388.0" fill="#c3c2b7" font-family="system-ui,-apple-system,'Segoe UI',Roboto,'Helvetica Neue',Arial,sans-serif" font-size="11" font-weight="400" text-anchor="middle">0</text><text x="154.5" y="388.0" fill="#c3c2b7" font-family="system-ui,-apple-system,'Segoe UI',Roboto,'Helvetica Neue',Arial,sans-serif" font-size="11" font-weight="400" text-anchor="middle">100</text><text x="250.5" y="388.0" fill="#c3c2b7" font-family="system-ui,-apple-system,'Segoe UI',Roboto,'Helvetica Neue',Arial,sans-serif" font-size="11" font-weight="400" text-anchor="middle">250</text><text x="323.0" y="388.0" fill="#c3c2b7" font-family="system-ui,-apple-system,'Segoe UI',Roboto,'Helvetica Neue',Arial,sans-serif" font-size="11" font-weight="400" text-anchor="middle">500</text><text x="395.5" y="388.0" fill="#c3c2b7" font-family="system-ui,-apple-system,'Segoe UI',Roboto,'Helvetica Neue',Arial,sans-serif" font-size="11" font-weight="400" text-anchor="middle">1000</text><text x="491.5" y="388.0" fill="#c3c2b7" font-family="system-ui,-apple-system,'Segoe UI',Roboto,'Helvetica Neue',Arial,sans-serif" font-size="11" font-weight="400" text-anchor="middle">2500</text><text x="564.0" y="388.0" fill="#c3c2b7" font-family="system-ui,-apple-system,'Segoe UI',Roboto,'Helvetica Neue',Arial,sans-serif" font-size="11" font-weight="400" text-anchor="middle">5000</text><text x="323.0" y="406.0" fill="#898781" font-family="system-ui,-apple-system,'Segoe UI',Roboto,'Helvetica Neue',Arial,sans-serif" font-size="11" font-weight="400" text-anchor="middle">linger, microseconds</text><text x="20.0" y="418.0" fill="#898781" font-family="system-ui,-apple-system,'Segoe UI',Roboto,'Helvetica Neue',Arial,sans-serif" font-size="11" font-weight="400" text-anchor="start">A straight trade. An earlier version of this chart turned over, and that was the instrument, not the board.</text></svg>
